<svg width="32" height="32" viewBox="0 0 32 32" fill="none" xmlns="http://www.w3.org/2000/svg">
  <!-- Simple bundt cake icon for favicon -->
  <rect width="32" height="32" rx="6" fill="#FAF7F2"/>

  <!-- Cake shadow -->
  <ellipse cx="16" cy="26" rx="10" ry="3" fill="#D97757" opacity="0.2"/>

  <!-- Cake body -->
  <path d="M 6 24 Q 6 12 16 8 Q 26 12 26 24 L 26 21 Q 26 12 16 10 Q 6 12 6 21 Z" fill="#7BA05B"/>

  <!-- Cake ridges -->
  <path d="M 9 20 Q 9 14 16 12 Q 23 14 23 20" stroke="#5D4E37" stroke-width="0.5" fill="none" opacity="0.4"/>
  <path d="M 11 17 Q 11 13 16 11.5 Q 21 13 21 17" stroke="#5D4E37" stroke-width="0.5" fill="none" opacity="0.4"/>

  <!-- Center hole -->
  <ellipse cx="16" cy="17" rx="3" ry="2.5" fill="#FAF7F2"/>
  <ellipse cx="16" cy="17" rx="3" ry="1.5" fill="#EDE4D8"/>

  <!-- Decorative elements (dates/fruits) -->
  <circle cx="12" cy="18" r="1.2" fill="#5D4E37" opacity="0.6"/>
  <circle cx="20" cy="19" r="1.2" fill="#5D4E37" opacity="0.6"/>
  <circle cx="14" cy="22" r="0.8" fill="#5D4E37" opacity="0.5"/>
  <circle cx="18" cy="16" r="0.8" fill="#5D4E37" opacity="0.5"/>
</svg>
